<svg width="277" height="73" viewBox="0 0 277 73" fill="none" xmlns="http://www.w3.org/2000/svg">
<path d="M16.1335 16.6676C16.0483 15.7301 15.669 15.0014 14.9957 14.4815C14.331 13.9531 13.3807 13.6889 12.1449 13.6889C11.3267 13.6889 10.6449 13.7955 10.0994 14.0085C9.55398 14.2216 9.14489 14.5156 8.87216 14.8906C8.59943 15.2571 8.45881 15.679 8.45028 16.1562C8.43324 16.5483 8.50994 16.8935 8.6804 17.1918C8.85938 17.4901 9.11506 17.7543 9.44744 17.9844C9.78835 18.206 10.1974 18.402 10.6747 18.5724C11.152 18.7429 11.6889 18.892 12.2855 19.0199L14.5355 19.5312C15.831 19.8125 16.973 20.1875 17.9616 20.6562C18.9588 21.125 19.794 21.6832 20.4673 22.331C21.1491 22.9787 21.6648 23.7244 22.0142 24.5682C22.3636 25.4119 22.5426 26.358 22.5511 27.4062C22.5426 29.0597 22.125 30.4787 21.2983 31.6634C20.4716 32.848 19.2827 33.7557 17.7315 34.3864C16.1889 35.017 14.3267 35.3324 12.1449 35.3324C9.95455 35.3324 8.04545 35.0043 6.41761 34.348C4.78977 33.6918 3.52415 32.6946 2.62074 31.3565C1.71733 30.0185 1.25284 28.3267 1.22727 26.2812H7.28693C7.33807 27.125 7.56392 27.8281 7.96449 28.3906C8.36506 28.9531 8.91477 29.3793 9.61364 29.669C10.321 29.9588 11.1392 30.1037 12.0682 30.1037C12.9205 30.1037 13.6449 29.9886 14.2415 29.7585C14.8466 29.5284 15.3111 29.2088 15.6349 28.7997C15.9588 28.3906 16.125 27.9219 16.1335 27.3935C16.125 26.8991 15.9716 26.4773 15.6733 26.1278C15.375 25.7699 14.9148 25.4631 14.2926 25.2074C13.679 24.9432 12.8949 24.7003 11.9403 24.4787L9.20455 23.8395C6.9375 23.3196 5.15199 22.4801 3.84801 21.321C2.54403 20.1534 1.89631 18.5767 1.90483 16.5909C1.89631 14.9716 2.33097 13.5526 3.20881 12.3338C4.08665 11.1151 5.30114 10.1648 6.85227 9.48295C8.40341 8.80114 10.1719 8.46023 12.1577 8.46023C14.1861 8.46023 15.946 8.8054 17.4375 9.49574C18.9375 10.1776 20.1009 11.1364 20.9276 12.3722C21.7543 13.608 22.1761 15.0398 22.1932 16.6676H16.1335ZM39.8991 16.6676C39.8139 15.7301 39.4347 15.0014 38.7614 14.4815C38.0966 13.9531 37.1463 13.6889 35.9105 13.6889C35.0923 13.6889 34.4105 13.7955 33.8651 14.0085C33.3196 14.2216 32.9105 14.5156 32.6378 14.8906C32.3651 15.2571 32.2244 15.679 32.2159 16.1562C32.1989 16.5483 32.2756 16.8935 32.446 17.1918C32.625 17.4901 32.8807 17.7543 33.2131 17.9844C33.554 18.206 33.9631 18.402 34.4403 18.5724C34.9176 18.7429 35.4545 18.892 36.0511 19.0199L38.3011 19.5312C39.5966 19.8125 40.7386 20.1875 41.7273 20.6562C42.7244 21.125 43.5597 21.6832 44.233 22.331C44.9148 22.9787 45.4304 23.7244 45.7798 24.5682C46.1293 25.4119 46.3082 26.358 46.3168 27.4062C46.3082 29.0597 45.8906 30.4787 45.0639 31.6634C44.2372 32.848 43.0483 33.7557 41.4972 34.3864C39.9545 35.017 38.0923 35.3324 35.9105 35.3324C33.7202 35.3324 31.8111 35.0043 30.1832 34.348C28.5554 33.6918 27.2898 32.6946 26.3864 31.3565C25.483 30.0185 25.0185 28.3267 24.9929 26.2812H31.0526C31.1037 27.125 31.3295 27.8281 31.7301 28.3906C32.1307 28.9531 32.6804 29.3793 33.3793 29.669C34.0866 29.9588 34.9048 30.1037 35.8338 30.1037C36.6861 30.1037 37.4105 29.9886 38.0071 29.7585C38.6122 29.5284 39.0767 29.2088 39.4006 28.7997C39.7244 28.3906 39.8906 27.9219 39.8991 27.3935C39.8906 26.8991 39.7372 26.4773 39.4389 26.1278C39.1406 25.7699 38.6804 25.4631 38.0582 25.2074C37.4446 24.9432 36.6605 24.7003 35.706 24.4787L32.9702 23.8395C30.7031 23.3196 28.9176 22.4801 27.6136 21.321C26.3097 20.1534 25.6619 18.5767 25.6705 16.5909C25.6619 14.9716 26.0966 13.5526 26.9744 12.3338C27.8523 11.1151 29.0668 10.1648 30.6179 9.48295C32.169 8.80114 33.9375 8.46023 35.9233 8.46023C37.9517 8.46023 39.7116 8.8054 41.2031 9.49574C42.7031 10.1776 43.8665 11.1364 44.6932 12.3722C45.5199 13.608 45.9418 15.0398 45.9588 16.6676H39.8991ZM49.5128 35V8.81818H55.8409V29.8608H66.733V35H49.5128ZM81.978 19.5057V24.3125H69.8587V19.5057H81.978ZM91.9847 8.81818L97.8398 27.9943H98.0572L103.912 8.81818H110.995L102.161 35H93.7362L84.9023 8.81818H91.9847ZM113.814 35V8.81818H124.629C126.589 8.81818 128.281 9.2017 129.704 9.96875C131.136 10.7273 132.24 11.7884 133.015 13.152C133.791 14.5071 134.179 16.0838 134.179 17.8821C134.179 19.6889 133.782 21.2699 132.99 22.625C132.206 23.9716 131.085 25.0156 129.627 25.7571C128.17 26.4986 126.44 26.8693 124.437 26.8693H117.764V21.8835H123.261C124.216 21.8835 125.012 21.7173 125.652 21.3849C126.299 21.0526 126.789 20.5881 127.122 19.9915C127.454 19.3864 127.62 18.6832 127.62 17.8821C127.62 17.0724 127.454 16.3736 127.122 15.7855C126.789 15.1889 126.299 14.7287 125.652 14.4048C125.004 14.081 124.207 13.919 123.261 13.919H120.142V35H113.814ZM159.581 8.81818V35H154.211L143.792 19.8892H143.626V35H137.298V8.81818H142.744L153.048 23.9034H153.265V8.81818H159.581ZM171.294 35V8.81818H182.109C184.07 8.81818 185.761 9.2017 187.185 9.96875C188.616 10.7273 189.72 11.7884 190.496 13.152C191.271 14.5071 191.659 16.0838 191.659 17.8821C191.659 19.6889 191.263 21.2699 190.47 22.625C189.686 23.9716 188.565 25.0156 187.108 25.7571C185.651 26.4986 183.92 26.8693 181.918 26.8693H175.244V21.8835H180.741C181.696 21.8835 182.493 21.7173 183.132 21.3849C183.78 21.0526 184.27 20.5881 184.602 19.9915C184.935 19.3864 185.101 18.6832 185.101 17.8821C185.101 17.0724 184.935 16.3736 184.602 15.7855C184.27 15.1889 183.78 14.7287 183.132 14.4048C182.484 14.081 181.688 13.919 180.741 13.919H177.622V35H171.294ZM203.558 35.3707C201.495 35.3707 199.723 34.9489 198.24 34.1051C196.765 33.2528 195.627 32.0682 194.826 30.5511C194.034 29.0256 193.637 27.2571 193.637 25.2457C193.637 23.2259 194.034 21.4574 194.826 19.9403C195.627 18.4148 196.765 17.2301 198.24 16.3864C199.723 15.5341 201.495 15.108 203.558 15.108C205.62 15.108 207.389 15.5341 208.863 16.3864C210.346 17.2301 211.484 18.4148 212.277 19.9403C213.078 21.4574 213.478 23.2259 213.478 25.2457C213.478 27.2571 213.078 29.0256 212.277 30.5511C211.484 32.0682 210.346 33.2528 208.863 34.1051C207.389 34.9489 205.62 35.3707 203.558 35.3707ZM203.596 30.6534C204.346 30.6534 204.981 30.4233 205.501 29.9631C206.021 29.5028 206.417 28.8636 206.69 28.0455C206.971 27.2273 207.112 26.2812 207.112 25.2074C207.112 24.1165 206.971 23.1619 206.69 22.3438C206.417 21.5256 206.021 20.8864 205.501 20.4261C204.981 19.9659 204.346 19.7358 203.596 19.7358C202.821 19.7358 202.164 19.9659 201.627 20.4261C201.099 20.8864 200.694 21.5256 200.413 22.3438C200.14 23.1619 200.004 24.1165 200.004 25.2074C200.004 26.2812 200.14 27.2273 200.413 28.0455C200.694 28.8636 201.099 29.5028 201.627 29.9631C202.164 30.4233 202.821 30.6534 203.596 30.6534ZM216.681 35V15.3636H222.753V18.9432H222.958C223.316 17.6477 223.9 16.6847 224.709 16.054C225.519 15.4148 226.461 15.0952 227.534 15.0952C227.824 15.0952 228.123 15.1165 228.429 15.1591C228.736 15.1932 229.022 15.2486 229.286 15.3253V20.7585C228.988 20.6562 228.596 20.5753 228.11 20.5156C227.632 20.456 227.206 20.4261 226.831 20.4261C226.09 20.4261 225.421 20.5923 224.824 20.9247C224.236 21.2486 223.772 21.7045 223.431 22.2926C223.098 22.8722 222.932 23.554 222.932 24.3381V35H216.681ZM243.831 15.3636V19.9659H231.443V15.3636H243.831ZM234.038 10.6591H240.29V28.8253C240.29 29.2088 240.349 29.5199 240.469 29.7585C240.597 29.9886 240.78 30.1548 241.018 30.2571C241.257 30.3509 241.543 30.3977 241.875 30.3977C242.114 30.3977 242.365 30.3764 242.629 30.3338C242.902 30.2827 243.107 30.2401 243.243 30.206L244.189 34.7188C243.891 34.804 243.469 34.9105 242.923 35.0384C242.386 35.1662 241.743 35.2472 240.993 35.2812C239.527 35.3494 238.27 35.179 237.222 34.7699C236.182 34.3523 235.385 33.7045 234.831 32.8267C234.286 31.9489 234.021 30.8452 234.038 29.5156V10.6591ZM252.556 35.3324C251.303 35.3324 250.191 35.1236 249.219 34.706C248.256 34.2798 247.494 33.6406 246.931 32.7884C246.377 31.9276 246.1 30.8494 246.1 29.554C246.1 28.4631 246.292 27.5426 246.675 26.7926C247.059 26.0426 247.587 25.4332 248.261 24.9645C248.934 24.4957 249.71 24.142 250.587 23.9034C251.465 23.6562 252.403 23.4901 253.4 23.4048C254.516 23.3026 255.415 23.196 256.097 23.0852C256.779 22.9659 257.273 22.7997 257.58 22.5866C257.896 22.3651 258.053 22.054 258.053 21.6534V21.5895C258.053 20.9332 257.827 20.4261 257.376 20.0682C256.924 19.7102 256.315 19.5312 255.548 19.5312C254.721 19.5312 254.056 19.7102 253.553 20.0682C253.05 20.4261 252.731 20.9205 252.594 21.5511L246.829 21.3466C246.999 20.1534 247.438 19.0881 248.146 18.1506C248.862 17.2045 249.842 16.4631 251.086 15.9261C252.339 15.3807 253.843 15.108 255.599 15.108C256.852 15.108 258.006 15.2571 259.063 15.5554C260.12 15.8452 261.04 16.2713 261.825 16.8338C262.609 17.3878 263.214 18.0696 263.64 18.8793C264.075 19.6889 264.292 20.6136 264.292 21.6534V35H258.411V32.2642H258.258C257.908 32.929 257.461 33.4915 256.915 33.9517C256.379 34.4119 255.744 34.7571 255.011 34.9872C254.286 35.2173 253.468 35.3324 252.556 35.3324ZM254.487 31.2415C255.16 31.2415 255.765 31.1051 256.302 30.8324C256.847 30.5597 257.282 30.1847 257.606 29.7074C257.93 29.2216 258.092 28.6591 258.092 28.0199V26.1534C257.913 26.2472 257.695 26.3324 257.44 26.4091C257.192 26.4858 256.92 26.5582 256.621 26.6264C256.323 26.6946 256.016 26.7543 255.701 26.8054C255.386 26.8565 255.083 26.9034 254.793 26.946C254.205 27.0398 253.702 27.1847 253.285 27.3807C252.876 27.5767 252.56 27.8324 252.339 28.1477C252.126 28.4545 252.019 28.821 252.019 29.2472C252.019 29.8949 252.249 30.3892 252.71 30.7301C253.178 31.071 253.771 31.2415 254.487 31.2415ZM274.366 8.81818V35H268.114V8.81818H274.366Z" fill="black"/>
<line x1="1" y1="58" x2="94.5" y2="58" stroke="#CECECE"/>
<path d="M106.847 67V49.5455H109.481V64.733H117.39V67H106.847ZM126.704 67.2642C125.477 67.2642 124.406 66.983 123.491 66.4205C122.576 65.858 121.866 65.071 121.36 64.0597C120.854 63.0483 120.602 61.8665 120.602 60.5142C120.602 59.1562 120.854 57.9687 121.36 56.9517C121.866 55.9347 122.576 55.1449 123.491 54.5824C124.406 54.0199 125.477 53.7386 126.704 53.7386C127.931 53.7386 129.002 54.0199 129.917 54.5824C130.832 55.1449 131.542 55.9347 132.048 56.9517C132.553 57.9687 132.806 59.1562 132.806 60.5142C132.806 61.8665 132.553 63.0483 132.048 64.0597C131.542 65.071 130.832 65.858 129.917 66.4205C129.002 66.983 127.931 67.2642 126.704 67.2642ZM126.712 65.125C127.508 65.125 128.167 64.9148 128.69 64.4943C129.212 64.0739 129.599 63.5142 129.849 62.8153C130.104 62.1165 130.232 61.3466 130.232 60.5057C130.232 59.6705 130.104 58.9034 129.849 58.2045C129.599 57.5 129.212 56.9347 128.69 56.5085C128.167 56.0824 127.508 55.8693 126.712 55.8693C125.911 55.8693 125.246 56.0824 124.718 56.5085C124.195 56.9347 123.806 57.5 123.55 58.2045C123.3 58.9034 123.175 59.6705 123.175 60.5057C123.175 61.3466 123.3 62.1165 123.55 62.8153C123.806 63.5142 124.195 64.0739 124.718 64.4943C125.246 64.9148 125.911 65.125 126.712 65.125ZM142.139 72.1818C141.099 72.1818 140.205 72.0455 139.455 71.7727C138.71 71.5 138.102 71.1392 137.631 70.6903C137.159 70.2415 136.807 69.75 136.574 69.2159L138.764 68.3125C138.918 68.5625 139.122 68.8267 139.378 69.1051C139.639 69.3892 139.991 69.6307 140.435 69.8295C140.884 70.0284 141.46 70.1278 142.165 70.1278C143.131 70.1278 143.929 69.892 144.56 69.4205C145.19 68.9545 145.506 68.2102 145.506 67.1875V64.6136H145.344C145.19 64.892 144.969 65.2017 144.679 65.5426C144.395 65.8835 144.003 66.179 143.503 66.429C143.003 66.679 142.352 66.804 141.551 66.804C140.517 66.804 139.585 66.5625 138.756 66.0795C137.932 65.5909 137.278 64.8722 136.795 63.9233C136.318 62.9687 136.08 61.7955 136.08 60.4034C136.08 59.0114 136.315 57.8182 136.787 56.8239C137.264 55.8295 137.918 55.0682 138.747 54.5398C139.577 54.0057 140.517 53.7386 141.568 53.7386C142.381 53.7386 143.037 53.875 143.537 54.1477C144.037 54.4148 144.426 54.7273 144.705 55.0852C144.989 55.4432 145.207 55.7585 145.361 56.0312H145.548V53.9091H148.045V67.2898C148.045 68.4148 147.784 69.3381 147.261 70.0597C146.739 70.7813 146.031 71.3153 145.139 71.6619C144.253 72.0085 143.253 72.1818 142.139 72.1818ZM142.114 64.6903C142.847 64.6903 143.466 64.5199 143.972 64.179C144.483 63.8324 144.869 63.3381 145.131 62.696C145.398 62.0483 145.531 61.2727 145.531 60.3693C145.531 59.4886 145.401 58.7131 145.139 58.0426C144.878 57.3722 144.494 56.8494 143.989 56.4744C143.483 56.0937 142.858 55.9034 142.114 55.9034C141.347 55.9034 140.707 56.1023 140.196 56.5C139.685 56.892 139.298 57.4261 139.037 58.1023C138.781 58.7784 138.653 59.5341 138.653 60.3693C138.653 61.2273 138.784 61.9801 139.045 62.6278C139.307 63.2756 139.693 63.7812 140.205 64.1449C140.722 64.5085 141.358 64.6903 142.114 64.6903ZM152.463 67V53.9091H155.011V67H152.463ZM153.75 51.8892C153.307 51.8892 152.926 51.7415 152.608 51.446C152.295 51.1449 152.139 50.7869 152.139 50.3722C152.139 49.9517 152.295 49.5937 152.608 49.2983C152.926 48.9972 153.307 48.8466 153.75 48.8466C154.193 48.8466 154.571 48.9972 154.884 49.2983C155.202 49.5937 155.361 49.9517 155.361 50.3722C155.361 50.7869 155.202 51.1449 154.884 51.446C154.571 51.7415 154.193 51.8892 153.75 51.8892ZM161.988 59.2273V67H159.44V53.9091H161.886V56.0398H162.048C162.349 55.3466 162.82 54.7898 163.462 54.3693C164.11 53.9489 164.925 53.7386 165.908 53.7386C166.8 53.7386 167.582 53.9261 168.252 54.3011C168.923 54.6705 169.442 55.2216 169.812 55.9545C170.181 56.6875 170.366 57.5937 170.366 58.6733V67H167.817V58.9801C167.817 58.0312 167.57 57.2898 167.076 56.7557C166.582 56.2159 165.903 55.946 165.039 55.946C164.448 55.946 163.923 56.0739 163.462 56.3295C163.008 56.5852 162.647 56.9602 162.38 57.4545C162.119 57.9432 161.988 58.5341 161.988 59.2273Z" fill="black"/>
<line x1="182.5" y1="58" x2="276" y2="58" stroke="#CECECE"/>
</svg>
